<svg xmlns="http://www.w3.org/2000/svg" viewBox="0 0 1600 1000" role="img" aria-label="DEMO 占位封面：模型能力阶梯与产品窗口期示意">
  <rect width="1600" height="1000" fill="#181817"/>
  <g stroke="#2a2a28" stroke-width="2">
    <path d="M200 840h1200M200 680h1200M200 520h1200M200 360h1200M200 200h1200"/>
  </g>
  <path d="M200 840h240v-160h240v-160h240v-160h240v-160h240" fill="none" stroke="#f3f2ed" stroke-width="4"/>
  <g fill="#757572" opacity="0.5">
    <rect x="320" y="680" width="80" height="160"/>
    <rect x="560" y="520" width="80" height="320"/>
    <rect x="800" y="360" width="80" height="480"/>
    <rect x="1040" y="200" width="80" height="640"/>
  </g>
  <g stroke="#9d9d99" stroke-width="2" stroke-dasharray="6 8" fill="none">
    <path d="M440 840V680M680 840V520M920 840V360M1160 840V200"/>
  </g>
  <g font-family="ui-monospace, SFMono-Regular, Menlo, monospace" font-size="26" letter-spacing="4" fill="#757572">
    <text x="200" y="160">CAPABILITY ↑ / WINDOW →</text>
    <text x="1080" y="924" fill="#4c4c49">DEMO COVER · 替换占位</text>
  </g>
</svg>
